# xmcd
#
# Track frame offsets: 
#        150
#        13429
#        28433
#        38624
#        55202
#        70578
#        88513
#        103859
#        114082
#        130910
#
# Disc length: 1846 seconds
#
# Revision: 0
# Processed by: cddbd v1.5.2PL0 Copyright (c) Steve Scherf et al.
# Submitted via: ExactAudioCopy v1.1
#
DISCID=8207340a
DTITLE=Caroline Cotter - Home on the River
DYEAR=2018
DGENRE=Country
TTITLE0=Peace of Mind
TTITLE1=1 4 3
TTITLE2=Home on the River
TTITLE3=Whein I Think of You
TTITLE4=Eternal Light
TTITLE5=Can't stop the Waves
TTITLE6=My Washroom
TTITLE7=Hey Mama
TTITLE8=Found
TTITLE9=My Peace
EXTD=
EXTT0=
EXTT1=
EXTT2=
EXTT3=
EXTT4=
EXTT5=
EXTT6=
EXTT7=
EXTT8=
EXTT9=
PLAYORDER=
